<?xml version="1.0" encoding="UTF-8"?>
<!DOCTYPE svg PUBLIC "-//W3C//DTD SVG 1.1//EN" "http://www.w3.org/Graphics/SVG/1.1/DTD/svg11.dtd">
<!-- Creator: CorelDRAW X7 -->
<svg xmlns="http://www.w3.org/2000/svg" xml:space="preserve" width="286.82481298" height="348.644871275" version="1.1" style="shape-rendering:geometricPrecision; text-rendering:geometricPrecision; image-rendering:optimizeQuality; fill-rule:evenodd; clip-rule:evenodd"
viewBox="0 0 4055 4929"
 xmlns:xlink="http://www.w3.org/1999/xlink">
 <defs>
  <style type="text/css">
   <![CDATA[
    .fil1 {fill:#006599}
    .fil0 {fill:#03060F}
    .fil2 {fill:#D53736}
    .fil3 {fill:white}
   ]]>
  </style>
 </defs>
 <g id="Layer_x0020_1">
  <metadata id="CorelCorpID_0Corel-Layer"/>
  <g id="_625433760">
   <ellipse class="fil0" cx="2028" cy="2465" rx="2021" ry="2461"/>
   <path class="fil1" d="M3996 2465c0,1329 -881,2407 -1968,2407 -1087,0 -1969,-1078 -1969,-2407l3937 0z"/>
   <path class="fil2" d="M2028 57c1087,0 1968,1078 1968,2408l-3937 0c0,-1330 882,-2408 1969,-2408z"/>
   <ellipse class="fil3" cx="2028" cy="2465" rx="1355" ry="1716"/>
   <path class="fil1" d="M2028 802c320,0 613,147 840,392l-535 888 -305 -556 -306 556 -535 -888c227,-245 520,-392 841,-392zm1165 921c88,223 137,475 137,742 0,365 -93,703 -249,977l-439 -799 551 -920zm-2219 1719c-156,-274 -249,-612 -249,-977 0,-267 50,-519 137,-742l551 920 -439 799z"/>
   <path class="fil2" d="M2028 3565l-1141 -1904c69,-159 159,-303 263,-425l878 1455 877 -1455c105,122 194,266 263,425l-1140 1904z"/>
   <path class="fil3" d="M376 1504l133 56 26 -62c5,-14 7,-26 3,-35 -3,-9 -14,-19 -32,-29l4 -9 116 48 -4 9c-13,-5 -24,-8 -31,-7 -8,1 -15,3 -20,8 -6,4 -11,12 -15,24l-26 61 107 45c18,7 29,10 36,11 5,0 10,-2 15,-6 7,-6 12,-13 15,-21l5 -12 10 4 -61 146 -9 -4 5 -12c6,-14 6,-26 1,-36 -4,-6 -16,-14 -37,-22l-220 -91c-17,-7 -29,-11 -35,-11 -5,0 -10,2 -15,6 -7,5 -12,12 -16,21l-5 12 -9 -4 104 -253 77 28 -4 8c-18,-2 -31,-2 -41,1 -10,3 -18,8 -25,15 -7,7 -14,19 -21,37l-31 74zm320 -304l188 -34c32,-5 55,-12 71,-20 15,-9 28,-19 38,-31l8 6 -100 143 -9 -5c6,-9 9,-16 9,-22 0,-6 -2,-10 -6,-12 -3,-3 -7,-4 -11,-5 -4,-1 -12,0 -25,3l-176 32 97 68c16,11 26,17 33,18 4,1 10,0 16,-3 8,-4 14,-9 19,-16l8 -11 8 6 -91 129 -8 -6 8 -10c8,-13 11,-24 8,-35 -2,-7 -13,-17 -31,-29l-195 -137c-15,-11 -26,-17 -32,-18 -5,-1 -10,-1 -16,2 -8,4 -15,10 -20,17l-7 11 -8 -6 90 -129 8 5 -7 11c-5,7 -8,15 -9,24 -1,6 0,12 4,17 3,5 12,13 27,23l93 65c-1,-5 -4,-22 -7,-50 -10,-72 -18,-118 -25,-137 -4,-8 -7,-13 -12,-17 -3,-2 -7,-2 -12,-1 -5,1 -10,6 -15,13l-5 7 -8 -6 78 -111 8 6c-5,6 -8,13 -10,19 -2,7 -3,16 -4,27 -1,11 0,26 3,44 0,5 5,31 14,77l13 78zm469 -706l7 8c-9,10 -14,19 -16,28 -2,13 0,29 6,48l94 325 -7 6 -305 -163c-16,-9 -26,-13 -31,-14 -7,-2 -14,-2 -21,0 -7,1 -16,5 -25,11l-6 -7 118 -94 6 8c-13,12 -19,21 -21,28 -1,6 0,12 4,17 6,7 18,15 36,25l208 111 -65 -221c-6,-22 -12,-36 -17,-42 -3,-4 -8,-7 -15,-7 -7,0 -16,2 -27,9 -1,0 -3,1 -5,2l-6 -8 88 -70zm214 -76l56 134 75 -31c19,-9 31,-17 35,-25 5,-12 4,-27 -3,-47l9 -4 50 118 -9 4c-9,-15 -16,-25 -21,-29 -5,-4 -12,-7 -20,-7 -8,-1 -20,2 -34,8l-75 31 47 112c7,15 11,24 14,27 3,3 6,4 10,5 4,0 11,-1 20,-5l58 -24c19,-8 32,-16 40,-22 7,-6 14,-15 18,-26 6,-15 10,-35 12,-60l11 -5 6 98 -262 109 -4 -9 12 -5c8,-3 15,-8 21,-15 4,-5 6,-11 6,-17 -1,-6 -4,-17 -11,-34l-93 -221c-9,-21 -16,-34 -23,-37 -9,-4 -20,-3 -34,3l-12 5 -4 -9 262 -110 35 73 -10 4c-11,-16 -20,-27 -27,-32 -7,-5 -16,-7 -26,-7 -7,0 -20,4 -36,11l-93 39zm650 101l9 1 -22 102 -284 27 -1 -10 14 -2c15,-1 26,-7 32,-18 3,-6 4,-19 2,-40l-23 -237c-2,-23 -6,-37 -11,-42 -8,-8 -19,-11 -33,-9l-13 1 -1 -10 166 -16 1 10c-20,2 -33,5 -41,10 -7,4 -12,9 -15,15 -2,6 -2,20 0,41l22 232c1,15 3,25 7,30 2,4 6,6 11,8 4,1 18,1 42,-2l27 -2c28,-3 48,-7 59,-12 11,-5 20,-14 29,-25 8,-11 16,-29 23,-52zm200 -229l-22 144 80 12c21,4 35,3 43,-2 11,-7 18,-21 22,-41l10 1 -20 127 -10 -2c1,-18 0,-30 -2,-35 -2,-7 -7,-12 -13,-17 -7,-5 -18,-9 -33,-11l-80 -13 -19 120c-3,17 -4,26 -3,30 1,4 3,7 6,10 4,2 10,4 20,6l62 10c20,3 36,4 45,2 10,-1 20,-5 30,-12 12,-10 26,-25 42,-45l11 2 -46 86 -280 -44 1 -10 13 2c9,1 17,0 25,-3 7,-1 11,-5 14,-11 3,-5 6,-17 9,-34l37 -237c4,-23 4,-37 0,-43 -6,-9 -16,-14 -31,-16l-13 -2 2 -10 280 44 -9 81 -10 -2c-1,-20 -3,-34 -6,-42 -4,-8 -10,-14 -18,-19 -6,-4 -19,-8 -37,-10l-100 -16zm636 186l-48 116 -7 -4c6,-39 4,-70 -8,-94 -11,-24 -30,-42 -56,-55 -22,-10 -44,-14 -67,-12 -23,3 -46,14 -68,33 -22,20 -42,48 -60,84 -14,30 -22,58 -23,85 -1,26 5,50 18,71 14,21 33,38 57,50 22,10 43,15 64,14 20,-1 47,-11 80,-29l5 9c-31,21 -60,33 -89,36 -29,3 -58,-3 -89,-18 -54,-26 -87,-67 -97,-123 -7,-41 -1,-82 19,-123 16,-33 38,-60 66,-80 29,-21 59,-32 92,-35 34,-2 66,4 96,19 24,11 45,29 62,52 5,7 9,11 12,12 4,2 9,3 14,1 6,-2 12,-7 18,-14l9 5zm-294 275l14 7 -21 14c9,8 14,16 16,24 2,9 1,18 -3,26 -6,12 -16,20 -30,24 -14,4 -29,2 -44,-5 -6,-3 -13,-8 -22,-13l5 -11c4,3 8,6 11,7 9,4 17,5 25,2 9,-2 15,-7 18,-14 2,-5 2,-10 0,-16 -2,-5 -5,-9 -11,-12 -1,-1 -4,-1 -6,-2l48 -31zm302 179l-6 8 -128 -91 5 -8 11 7c13,9 24,12 35,9 7,-3 17,-13 29,-31l139 -194c10,-15 16,-26 18,-32 1,-5 0,-10 -2,-16 -4,-8 -10,-15 -17,-20l-11 -7 6 -8 129 91 -6 8 -11 -7c-12,-9 -24,-12 -34,-9 -7,3 -17,13 -30,31l-138 194c-11,15 -17,26 -19,32 -1,4 0,10 3,16 4,8 9,14 16,19l11 8zm271 -5l-5 191c-2,32 0,56 5,73 5,17 12,32 22,44l-7 7 -120 -128 8 -7c7,8 13,12 19,13 6,1 10,0 13,-3 3,-3 6,-6 7,-10 1,-3 2,-12 3,-25l5 -179 -87 81c-13,13 -22,22 -24,28 -2,4 -3,10 -1,16 2,9 6,16 12,23l9 9 -7 7 -108 -115 7 -7 9 9c11,11 21,17 33,16 7,-1 18,-9 35,-24l174 -163c13,-12 22,-22 25,-28 2,-4 2,-9 0,-16 -2,-8 -6,-16 -12,-22l-9 -10 7 -7 108 116 -7 7 -9 -10c-6,-6 -13,-11 -22,-14 -6,-2 -11,-2 -17,1 -6,2 -15,9 -29,22l-82 77c5,0 22,1 50,3 73,6 119,7 139,4 9,-1 15,-4 19,-8 3,-2 4,-6 4,-11 0,-5 -3,-11 -10,-18l-5 -6 7 -6 92 99 -7 6c-6,-5 -11,-10 -17,-13 -6,-4 -14,-7 -25,-10 -11,-3 -25,-5 -44,-6 -5,-1 -31,-1 -78,-3l-80 -3zm452 367l9 -5 64 113 -9 5 -6 -12c-8,-13 -18,-20 -33,-20 -7,-1 -19,4 -36,14l-130 75c-32,18 -59,29 -80,33 -21,4 -43,0 -67,-11 -23,-12 -44,-33 -62,-65 -20,-35 -29,-65 -28,-90 2,-25 11,-47 27,-66 11,-13 36,-31 74,-53l125 -71c20,-12 31,-22 34,-31 3,-9 1,-19 -6,-31l-7 -12 9 -5 79 138 -8 5 -7 -13c-8,-13 -18,-20 -29,-21 -8,0 -21,5 -39,15l-139 80c-12,7 -26,16 -41,28 -14,11 -24,22 -30,33 -5,12 -8,24 -7,39 0,15 5,30 15,46 12,21 27,37 46,48 18,12 36,16 54,14 18,-2 43,-13 77,-32l130 -75c20,-11 31,-20 33,-28 4,-10 2,-21 -5,-33l-7 -12z"/>
   <path class="fil3" d="M1226 4246l43 186c6,31 14,54 23,70 9,15 20,27 33,37l-6 8 -148 -94 6 -8c9,5 16,8 22,7 5,0 9,-2 12,-6 2,-4 3,-7 4,-11 0,-4 -1,-13 -4,-26l-40 -174 -64 100c-10,16 -15,27 -16,34 -1,4 0,10 3,16 4,7 10,14 18,18l11 7 -6 9 -133 -85 5 -8 11 7c13,8 25,10 35,6 7,-2 17,-13 28,-31l128 -202c10,-15 16,-27 17,-33 1,-5 0,-10 -3,-16 -5,-8 -11,-14 -18,-18l-11 -7 5 -9 134 85 -6 8 -11 -7c-7,-4 -15,-7 -24,-8 -6,0 -12,1 -17,5 -5,4 -12,13 -22,28l-60 96c5,-1 21,-4 49,-10 72,-12 117,-23 136,-31 8,-3 13,-7 16,-12 2,-3 2,-7 1,-12 -2,-5 -6,-10 -14,-15l-7 -4 6 -8 114 72 -5 9c-7,-5 -14,-7 -20,-9 -7,-2 -16,-3 -27,-3 -11,0 -26,1 -44,5 -5,1 -31,6 -77,17l-77 17zm450 25c46,13 81,42 105,86 24,45 28,93 13,145 -15,54 -44,94 -88,120 -44,26 -90,32 -138,19 -49,-14 -85,-43 -108,-87 -24,-44 -28,-93 -12,-149 16,-56 48,-96 96,-121 42,-22 86,-26 132,-13zm-10 18c-32,-9 -60,-5 -86,13 -32,23 -56,63 -72,119 -16,58 -17,106 -1,144 13,29 34,48 65,57 34,9 65,4 94,-16 29,-20 51,-58 67,-114 17,-60 18,-109 2,-146 -12,-29 -35,-48 -69,-57zm290 236l-4 108c-1,23 1,37 6,43 6,8 16,12 30,13l14 0 0 10 -158 -5 1 -10 14 0c15,1 27,-4 34,-14 3,-5 6,-18 7,-39l8 -239c1,-23 -1,-37 -5,-43 -7,-8 -17,-12 -31,-13l-14 -1 0 -9 135 5c33,1 59,5 78,13 18,7 34,19 46,36 13,16 19,36 18,58 -1,30 -12,54 -33,72 -20,18 -49,26 -85,25 -9,0 -18,-1 -28,-3 -11,-2 -22,-4 -33,-7zm0 -16c10,3 18,4 26,5 7,2 13,2 18,3 19,0 36,-6 50,-20 14,-15 21,-33 22,-56 1,-16 -2,-31 -8,-45 -6,-14 -15,-24 -26,-31 -12,-8 -25,-11 -40,-12 -10,0 -21,1 -36,4l-6 152zm549 20l9 1 -10 104 -279 60 -2 -10 14 -3c15,-3 25,-10 29,-22 3,-6 2,-19 -3,-40l-50 -233c-5,-22 -10,-36 -17,-40 -8,-7 -19,-8 -33,-5l-13 3 -2 -10 163 -35 2 9c-19,4 -32,9 -39,14 -7,6 -12,12 -13,18 -2,6 0,20 4,41l49 227c3,14 7,24 11,29 3,3 7,5 12,6 4,1 18,-1 42,-6l26 -6c28,-6 47,-12 57,-18 10,-7 19,-16 26,-29 7,-12 12,-30 17,-55zm258 -13l4 9 -145 62 -4 -9 12 -5c14,-6 23,-15 26,-26 1,-7 -2,-20 -11,-40l-94 -220c-7,-17 -13,-28 -17,-32 -4,-3 -9,-6 -15,-6 -9,-1 -18,0 -26,4l-12 5 -4 -10 145 -62 4 10 -12 5c-14,6 -22,14 -25,25 -2,7 2,21 10,41l94 219c8,17 14,28 18,32 3,4 8,6 15,7 9,1 17,-1 25,-4l12 -5zm99 -290l189 33c31,5 55,7 73,5 17,-3 33,-8 46,-16l6 8 -144 100 -6 -8c9,-6 14,-12 16,-17 2,-6 1,-10 -1,-14 -3,-3 -6,-6 -9,-8 -3,-2 -12,-4 -25,-6l-176 -31 68 98c11,15 19,24 24,28 4,3 9,4 16,3 9,-1 17,-4 24,-9l11 -7 5 8 -129 90 -6 -8 11 -8c12,-8 19,-18 20,-29 0,-8 -6,-20 -19,-38l-136 -196c-11,-15 -19,-25 -24,-28 -4,-3 -9,-4 -16,-3 -9,1 -17,4 -24,9l-11 7 -6 -8 130 -90 6 8 -11 7c-7,5 -13,11 -17,19 -3,6 -4,12 -2,18 1,6 7,16 18,31l64 93c1,-5 5,-22 11,-50 16,-71 24,-116 24,-136 -1,-9 -2,-16 -5,-20 -3,-4 -6,-5 -11,-6 -5,0 -11,2 -19,7l-7 5 -5 -8 111 -78 5 9c-6,4 -11,9 -15,15 -5,5 -9,13 -13,23 -5,10 -9,24 -13,43 -1,5 -6,31 -14,77l-14 78z"/>
   <path class="fil3" d="M1547 1089l85 -41 9 0 0 294c0,20 0,32 2,37 2,5 5,9 10,11 5,3 16,4 32,5l0 9 -132 0 0 -9c17,-1 27,-2 32,-5 5,-2 8,-6 10,-10 2,-4 3,-17 3,-38l0 -188c0,-25 -1,-42 -3,-49 -1,-5 -3,-9 -6,-12 -3,-2 -7,-4 -12,-4 -6,0 -15,3 -26,8l-4 -8zm230 322l0 -9c22,0 43,-6 62,-16 19,-10 37,-27 55,-53 18,-25 31,-52 38,-82 -27,17 -51,26 -73,26 -25,0 -45,-10 -63,-29 -17,-19 -26,-44 -26,-75 0,-30 9,-58 26,-81 21,-29 49,-44 83,-44 28,0 53,12 73,36 25,29 37,65 37,108 0,39 -9,75 -28,109 -19,33 -46,61 -79,83 -28,18 -58,27 -91,27l-14 0zm159 -179c3,-22 4,-40 4,-53 0,-17 -2,-35 -8,-54 -6,-19 -14,-34 -24,-44 -10,-11 -22,-16 -35,-16 -15,0 -29,7 -40,21 -12,13 -17,34 -17,61 0,36 7,64 23,84 11,15 24,22 40,22 8,0 18,-1 28,-5 11,-4 21,-9 29,-16zm321 44l0 36 -47 0 0 92 -43 0 0 -92 -147 0 0 -33 161 -231 29 0 0 228 47 0zm-90 0l0 -174 -121 174 121 0zm209 -48c-28,-22 -46,-40 -54,-54 -8,-14 -12,-28 -12,-43 0,-22 9,-42 27,-58 17,-17 41,-25 70,-25 28,0 50,8 68,23 17,15 25,33 25,52 0,13 -4,27 -13,40 -10,14 -29,30 -58,48 30,23 50,41 60,55 13,17 19,36 19,55 0,24 -9,45 -28,63 -19,17 -43,26 -74,26 -33,0 -59,-11 -77,-31 -15,-17 -22,-35 -22,-55 0,-15 5,-30 15,-46 11,-15 29,-31 54,-50zm41 -27c20,-19 33,-33 39,-44 5,-11 8,-23 8,-37 0,-18 -5,-32 -15,-42 -10,-10 -24,-16 -42,-16 -17,0 -32,6 -43,16 -11,10 -16,22 -16,35 0,9 2,18 7,27 4,9 11,18 19,26l43 35zm-29 37c-14,12 -25,25 -32,39 -6,14 -10,29 -10,46 0,22 6,39 18,53 12,13 28,20 47,20 18,0 33,-6 44,-16 11,-10 17,-23 17,-38 0,-12 -3,-23 -10,-33 -12,-18 -37,-42 -74,-71z"/>
  </g>
 </g>
</svg>
